<?xml version="1.0" encoding="utf-8"?>
<!-- Generator: Adobe Illustrator 16.0.0, SVG Export Plug-In . SVG Version: 6.00 Build 0)  -->
<!DOCTYPE svg PUBLIC "-//W3C//DTD SVG 1.1//EN" "http://www.w3.org/Graphics/SVG/1.1/DTD/svg11.dtd">
<svg version="1.1" id="Layer_1" xmlns="http://www.w3.org/2000/svg" xmlns:xlink="http://www.w3.org/1999/xlink" x="0px" y="0px"
	 width="200px" height="200px" viewBox="0 0 200 200" enable-background="new 0 0 200 200" xml:space="preserve">
<g>
	<path d="M199.247,100.043c0,54.89-44.414,99.304-99.304,99.304c-54.791,0-99.207-44.414-99.207-99.304
		c0-54.792,44.416-99.301,99.207-99.301C154.833,0.743,199.247,45.252,199.247,100.043z M124.866,180.729
		c34.136-11.249,58.864-43.058,58.864-80.685c0-46.257-37.529-83.785-83.787-83.785c-46.161,0-83.69,37.527-83.69,83.785
		c0,37.627,24.826,69.533,59.059,80.685v-15.808c-24.439,5.528-29.578-11.443-29.578-11.443c-3.879-9.988-9.504-12.606-9.504-12.606
		c-7.855-5.334,0.582-5.236,0.582-5.236c8.631,0.581,13.189,8.824,13.189,8.824c8.146,13.965,21.625,8.922,25.795,6.886
		c1.261-6.109,6.013-7.37,7.564-7.855c-22.014-2.327-45.579-10.279-45.579-48.392c0-10.667,3.782-19.396,9.989-26.184
		c-0.97-2.521-4.364-12.413,0.97-25.892c0,0,8.242-2.615,26.862,9.988c7.758-2.133,16.099-3.2,24.439-3.297
		c8.243,0.097,16.582,1.164,24.438,3.297c18.619-12.604,26.766-9.988,26.766-9.988c5.334,13.479,2.036,23.371,0.97,25.892
		c6.304,6.788,10.086,15.516,10.086,26.184c0,38.112-23.565,45.967-45.579,48.295c3.976,2.716,8.146,7.854,8.146,17.65V180.729z"/>
</g>
</svg>
