<?xml version="1.0" encoding="utf-8"?>
<!-- Generator: Adobe Illustrator 16.0.0, SVG Export Plug-In . SVG Version: 6.00 Build 0)  -->
<!DOCTYPE svg PUBLIC "-//W3C//DTD SVG 1.1//EN" "http://www.w3.org/Graphics/SVG/1.1/DTD/svg11.dtd">
<svg version="1.1" id="Layer_1" xmlns="http://www.w3.org/2000/svg" xmlns:xlink="http://www.w3.org/1999/xlink" x="0px" y="0px"
	 width="200px" height="200px" viewBox="0 0 200 200" enable-background="new 0 0 200 200" xml:space="preserve">
<path fill="#131313" d="M175.619,99.072C159.349,165.084,50.12,193.095-0.125,124.558c19.245,18.376,52.764,19.998,74.018-1.982
	c-12.467,1.828-21.539-10.413-6.223-17.023c-13.761,1.511-21.428-5.82-24.562-12.047c3.222-3.373,6.789-4.947,13.678-5.405
	c-15.078-3.565-20.642-10.939-22.344-19.896c4.176-0.997,9.406-1.861,12.264-1.475C33.505,59.827,28.92,49.426,29.648,41.611
	c23.59,8.775,38.624,15.816,51.195,22.553c4.477,2.396,9.483,6.706,15.12,12.177c7.171-19,16.044-38.562,31.226-48.278
	c-0.249,2.207-1.426,4.25-2.988,5.93c4.315-3.918,9.903-6.614,15.594-7.394c-0.656,4.274-6.799,6.678-10.518,8.075
	c2.812-0.875,17.765-7.543,19.397-3.74c1.921,4.315-10.317,6.314-12.392,7.061c-1.563,0.524-3.113,1.101-4.638,1.714
	c18.936-1.886,37.017,13.752,42.295,33.163c0.377,1.4,0.753,2.948,1.097,4.578c6.927,2.582,19.48-0.128,23.521-2.618
	c-2.927,6.921-10.516,12.019-21.732,12.948c5.398,2.245,15.579,3.491,22.607,2.292C194.985,94.848,187.827,99.169,175.619,99.072z"
	/>
</svg>
